<?xml version="1.0" encoding="utf-8"?>
<!-- Generator: Adobe Illustrator 27.5.0, SVG Export Plug-In . SVG Version: 6.00 Build 0)  -->
<svg version="1.1" xmlns="http://www.w3.org/2000/svg" xmlns:xlink="http://www.w3.org/1999/xlink" x="0px" y="0px"
	 viewBox="0 0 1122 1122" style="enable-background:new 0 0 1122 1122;" xml:space="preserve">
<g id="Bg">
	<g>
		<g>
			<rect style="fill:#FFFFFF;" width="1122" height="1122"/>
		</g>
	</g>
</g>
<g id="Object">
	<g>
		<path style="fill:#616E7D;" d="M330.043,796.912l-2.257,0.194l-84.941,84.931l-0.206,2.237l2.157,0.626l160.864-70.261
			l0.955-1.021l27.189-75.767l-0.422-1.85l-51.464-51.474l-1.96-0.372l-71.671,31.271l-0.92,0.92L237.1,877.193l0.623,2.167
			l2.247-0.211l84.926-84.924l0.186-2.262c-5.58-7.942-4.855-18.95,2.227-26.044c7.962-7.935,20.816-7.935,28.778,0
			c7.922,7.962,7.922,20.811,0,28.768C348.994,801.788,337.986,802.499,330.043,796.912z"/>
		<path style="fill:#82BFAB;" d="M509.115,502.751L619.26,612.884c134.148-138.263,291.273-343.103,262.108-372.255
			C852.228,211.481,647.385,368.599,509.115,502.751z"/>
		<path style="fill:#82BFAB;" d="M417.156,704.843c25.179,25.187,40.164,52.677,122.089-15.962L433.131,582.757
			C364.487,664.685,391.978,679.661,417.156,704.843z"/>
		<path style="fill:#AAD4C8;" d="M539.245,688.88c9.229-7.731,19.312-16.688,30.341-26.998L460.13,552.41
			c-10.315,11.039-19.283,21.127-26.999,30.347L539.245,688.88z"/>
		<path style="fill:#616E7D;" d="M460.13,552.41l109.456,109.472c9.651-9.018,19.961-18.971,31.171-30.18
			c6.097-6.087,12.275-12.406,18.503-18.817L509.115,502.751c-6.41,6.213-12.723,12.401-18.825,18.495
			C479.095,532.446,469.138,542.764,460.13,552.41z"/>
	</g>
</g>
</svg>
